<?xml version="1.0" standalone="no"?>
<!DOCTYPE svg PUBLIC "-//W3C//DTD SVG 20010904//EN"
 "http://www.w3.org/TR/2001/REC-SVG-20010904/DTD/svg10.dtd">
<svg version="1.0" xmlns="http://www.w3.org/2000/svg"
 width="500.000000pt" height="500.000000pt" viewBox="0 0 500.000000 500.000000"
 preserveAspectRatio="xMidYMid meet">
<metadata>
Created by potrace 1.16, written by Peter Selinger 2001-2019
</metadata>
<g transform="translate(0.000000,500.000000) scale(0.100000,-0.100000)"
fill="#000000" stroke="none">
<path d="M0 2500 l0 -2500 2500 0 2500 0 0 2500 0 2500 -2500 0 -2500 0 0
-2500z m2017 2067 c33 -30 78 -67 99 -82 22 -16 59 -48 84 -71 25 -23 90 -80
145 -126 56 -45 168 -153 250 -238 137 -142 285 -279 343 -318 25 -16 41 -10
24 10 -6 7 -17 47 -26 88 -8 41 -24 113 -36 160 -12 47 -29 121 -39 165 -10
44 -22 92 -26 106 -13 50 12 38 61 -29 199 -275 283 -402 299 -454 4 -12 25
-53 46 -90 42 -75 89 -203 89 -243 0 -17 -7 -28 -21 -33 -20 -8 -20 -8 3 -19
13 -6 46 -19 73 -28 49 -16 74 -30 169 -90 87 -55 157 -113 270 -222 62 -59
140 -134 174 -166 58 -54 74 -77 53 -77 -11 0 -139 59 -170 79 -48 30 -307
131 -338 131 -7 0 -13 -4 -13 -10 0 -5 6 -10 13 -10 21 0 79 -31 107 -58 14
-13 54 -44 90 -69 71 -51 230 -169 294 -220 23 -18 91 -69 151 -113 138 -101
216 -170 193 -170 -10 0 -48 11 -85 26 -38 14 -117 40 -178 59 -60 19 -135 43
-165 54 -30 11 -57 18 -59 15 -8 -8 52 -65 134 -127 44 -33 82 -64 85 -67 3
-4 70 -50 150 -103 178 -119 227 -154 308 -220 123 -100 119 -96 97 -97 -59 0
-470 83 -590 121 -111 34 -433 104 -441 96 -13 -12 8 -25 78 -46 40 -12 108
-33 150 -46 43 -14 87 -25 98 -25 12 0 31 -5 42 -11 12 -6 54 -19 93 -29 39
-10 80 -22 91 -28 18 -9 97 -31 253 -72 65 -16 87 -34 54 -44 -31 -9 -313 -48
-408 -56 -179 -16 -221 -20 -255 -27 -169 -32 -507 -46 -514 -20 -27 93 -40
148 -76 337 -8 45 -60 369 -60 377 0 2 4 3 9 3 5 0 18 -15 30 -32 11 -18 26
-42 33 -53 7 -10 47 -64 89 -120 42 -55 119 -164 172 -242 53 -78 98 -139 101
-135 9 15 -61 246 -94 312 -33 66 -141 390 -220 660 -21 71 -31 100 -86 260
-22 64 -22 65 -33 37 -15 -38 -14 -50 9 -126 11 -36 42 -147 70 -246 28 -99
54 -189 59 -200 24 -56 121 -331 121 -342 0 -17 -28 24 -76 110 -64 114 -133
229 -144 237 -4 3 -9 10 -11 15 -11 28 -107 154 -139 182 -50 44 -68 31 -35
-28 73 -131 97 -183 92 -207 -3 -14 -1 -55 3 -91 5 -36 14 -111 21 -166 6 -55
18 -120 25 -145 8 -25 14 -62 14 -83 0 -21 7 -70 16 -109 11 -48 13 -73 6 -80
-7 -7 -31 32 -78 128 -37 77 -81 159 -98 184 -18 25 -52 86 -78 135 -68 135
-218 379 -266 434 -19 21 113 -249 138 -284 4 -5 27 -46 50 -89 48 -90 48 -99
1 -200 -17 -35 -35 -84 -40 -108 -6 -23 -29 -104 -52 -178 -22 -74 -44 -150
-47 -168 -4 -18 -11 -33 -17 -32 -6 0 -11 79 -12 212 -1 117 -4 241 -8 275 -7
64 -25 96 -25 46 -1 -15 -5 -85 -9 -155 -6 -99 -12 -133 -27 -155 -24 -36 -66
-113 -157 -293 -41 -80 -99 -188 -129 -240 -30 -52 -63 -114 -73 -137 -17 -39
-45 -59 -45 -32 0 13 34 149 56 224 15 51 61 315 84 480 6 50 16 103 21 119 5
16 9 45 9 64 0 34 -1 34 -19 18 -10 -9 -35 -56 -56 -104 -20 -48 -59 -135 -86
-194 -27 -59 -49 -112 -49 -118 0 -6 -4 -18 -8 -28 -5 -9 -23 -46 -41 -82
l-31 -65 6 45 c3 25 14 73 25 107 10 35 35 143 55 240 20 98 40 194 44 213 15
60 100 472 111 534 12 72 3 86 -37 53 -31 -25 -160 -124 -259 -199 -33 -24
-68 -47 -77 -51 -18 -6 -68 27 -68 45 0 6 31 59 68 117 106 164 146 231 139
237 -7 8 -49 -29 -202 -177 -135 -130 -180 -166 -190 -149 -3 5 17 40 45 78
27 38 50 73 50 78 0 5 9 20 20 34 18 24 27 60 14 60 -14 0 -295 -292 -494
-515 -34 -38 -66 -71 -71 -73 -23 -9 -5 47 36 108 25 37 79 134 121 216 42 82
90 173 106 203 33 61 29 79 -7 35 -67 -81 -155 -195 -190 -246 -22 -32 -43
-58 -47 -58 -27 0 30 157 82 231 45 62 11 52 -62 -18 -72 -71 -108 -90 -108
-58 0 9 17 34 39 58 52 57 151 187 151 198 0 23 -37 5 -79 -39 -45 -47 -136
-159 -156 -192 -5 -10 -26 -37 -45 -62 -19 -25 -54 -71 -78 -102 -24 -31 -51
-60 -60 -63 -25 -10 -194 -113 -217 -134 -11 -9 -75 -54 -143 -98 -67 -45
-143 -97 -168 -117 -26 -19 -49 -32 -52 -30 -3 3 33 45 80 93 47 49 114 122
149 163 35 41 91 104 124 140 34 36 94 103 135 150 41 47 82 92 91 100 16 16
32 50 23 50 -12 0 -92 -60 -124 -94 -44 -46 -69 -59 -145 -75 -33 -7 -96 -21
-140 -31 -44 -10 -105 -21 -135 -25 -30 -3 -77 -11 -103 -17 -26 -5 -50 -8
-53 -5 -3 3 39 31 93 62 54 31 121 71 148 87 44 27 245 144 345 200 19 11 64
39 100 63 155 102 238 137 285 119 14 -6 14 -8 -3 -19 -10 -8 -44 -22 -75 -33
-31 -11 -66 -27 -79 -36 l-22 -16 24 0 c14 1 45 5 70 11 25 5 101 13 170 18
69 5 159 14 200 20 41 6 181 22 310 36 129 14 251 29 270 32 l35 6 -43 7 c-48
7 -246 -2 -409 -19 -119 -13 -274 -28 -353 -36 l-55 -5 90 44 c50 25 98 45
107 45 9 1 20 6 23 11 3 6 15 10 25 10 21 0 152 59 132 60 -15 0 -124 -35
-167 -54 -16 -8 -46 -17 -65 -21 -19 -4 -47 -14 -62 -21 -41 -21 -69 -17 -147
21 -39 19 -77 35 -85 35 -8 0 -49 16 -92 36 -42 19 -114 51 -160 70 -109 45
-324 154 -324 165 0 14 15 18 91 24 41 3 119 10 174 15 55 5 150 12 210 15
204 10 479 37 543 52 12 3 22 9 22 14 0 5 -10 9 -22 9 -26 1 -109 74 -153 135
-16 22 -72 91 -124 154 -53 62 -105 126 -116 141 -11 15 -55 74 -97 130 -43
56 -78 106 -78 111 0 15 25 10 84 -16 31 -14 61 -25 66 -25 15 0 136 -57 181
-86 87 -55 240 -110 239 -86 0 4 -44 35 -98 70 -101 66 -191 137 -182 145 6 6
75 -11 170 -43 36 -11 90 -27 120 -35 192 -48 349 -104 411 -146 14 -10 61
-34 104 -53 117 -54 133 -48 64 25 -23 24 -48 60 -56 79 -9 19 -28 62 -43 95
-15 33 -44 112 -65 175 -21 63 -55 163 -76 222 -58 159 -54 167 38 85z m-668
-973 c33 -4 53 -14 78 -40 52 -53 46 -60 -57 -68 -82 -7 -94 -5 -127 14 -47
28 -123 90 -123 101 0 8 136 4 229 -7z m932 -1115 c-17 -74 -36 -159 -42 -189
-6 -30 -23 -100 -37 -155 -13 -55 -31 -134 -39 -175 -8 -41 -19 -79 -24 -84
-5 -6 -9 -35 -9 -66 0 -31 -9 -99 -21 -151 -44 -202 -55 -284 -41 -293 6 -3
13 6 17 23 3 16 17 39 31 51 13 13 24 27 24 32 0 5 14 21 30 35 17 13 30 31
30 39 0 7 10 18 21 25 20 10 21 9 16 -17 -3 -16 -13 -83 -22 -149 -50 -381
-59 -441 -69 -473 -14 -43 19 -13 49 45 39 74 112 166 118 150 7 -20 -76 -394
-92 -410 -29 -29 -326 -67 -531 -67 -245 0 -352 19 -516 92 -52 23 -114 58
-138 79 l-43 38 -6 113 c-5 105 -15 165 -54 323 -8 33 -21 121 -30 195 l-15
135 24 70 c25 74 37 83 53 44 6 -13 25 -53 43 -88 l32 -65 -25 -26 c-30 -32
-32 -54 -5 -87 11 -14 20 -34 20 -44 0 -10 4 -20 9 -23 5 -3 14 -28 21 -55 9
-39 9 -57 -1 -85 -12 -34 -11 -37 14 -64 54 -57 105 -73 245 -79 138 -6 139
-6 192 64 8 11 28 28 43 38 27 17 65 75 50 75 -5 0 -25 -5 -46 -11 -46 -13
-114 0 -190 35 -156 72 -187 87 -193 97 -3 6 -19 9 -34 7 -32 -3 -72 28 -96
74 -12 23 -12 31 -2 48 7 11 16 20 20 20 16 0 7 53 -21 128 -41 108 -43 123
-26 180 14 46 20 52 71 77 31 15 78 51 107 82 29 30 72 73 97 96 25 23 93 90
151 150 59 59 112 107 118 107 13 0 11 -5 -29 -65 -41 -61 -81 -143 -72 -149
5 -3 28 15 52 39 24 25 50 45 58 45 20 0 42 -26 42 -49 0 -31 18 -35 40 -9 14
17 22 20 30 12 12 -12 -3 -32 -46 -61 -27 -18 -32 -43 -8 -43 12 0 15 -6 10
-25 -5 -20 -3 -25 13 -25 11 0 23 5 26 10 11 17 35 11 35 -9 0 -22 -19 -39
-74 -66 -56 -27 -54 -51 6 -86 132 -78 140 -81 213 -83 66 -1 135 16 135 34 0
13 -60 30 -104 30 -38 0 -76 14 -66 23 3 3 20 12 37 21 18 9 49 30 68 48 32
27 38 29 51 17 8 -8 15 -35 17 -59 2 -37 7 -47 30 -60 24 -13 29 -13 36 -1 7
12 13 12 24 3 18 -15 27 -6 27 28 0 65 -85 205 -179 293 -33 32 -61 60 -61 63
0 2 9 4 21 4 27 0 219 -194 219 -221 0 -5 4 -9 9 -9 33 0 -77 160 -153 224
-25 21 -46 45 -46 55 1 39 126 92 145 61 3 -5 13 -10 22 -10 11 0 8 6 -11 21
-14 11 -26 24 -26 29 0 9 177 157 229 192 14 10 27 14 29 9 2 -5 -11 -69 -27
-142z m775 -654 c-5 -14 14 -25 46 -25 15 0 18 4 14 17 -4 10 4 6 20 -10 14
-14 23 -31 20 -36 -4 -6 2 -19 14 -31 21 -21 26 -40 11 -40 -12 0 -41 46 -41
65 0 25 -34 13 -38 -13 -2 -15 2 -22 12 -22 9 0 16 -4 16 -10 0 -5 -6 -10 -14
-10 -18 0 46 -124 90 -178 34 -39 47 -69 34 -77 -4 -3 -63 -6 -130 -7 -140 -2
-161 7 -142 60 7 21 7 33 -1 41 -8 8 -8 11 2 11 14 0 41 59 41 92 0 13 7 36
15 52 20 37 17 89 -5 81 -12 -5 -13 -4 -2 6 16 17 15 29 -3 29 -9 0 -15 9 -15
25 0 25 0 25 31 10 18 -10 29 -22 25 -30z m-407 -192 c2 -264 -17 -342 -118
-503 -22 -36 -47 -81 -56 -100 -8 -19 -19 -42 -25 -50 -6 -8 -24 -44 -41 -80
-76 -162 -103 -210 -112 -201 -5 5 -3 37 7 82 9 41 23 110 32 154 8 44 24 109
34 145 33 117 40 147 40 173 0 39 26 109 85 232 87 182 112 238 125 278 6 20
15 37 19 37 5 0 9 -75 10 -167z m1441 52 c11 -14 74 -53 141 -87 64 -33 129
-84 129 -102 0 -13 -4 -16 -17 -11 -10 4 -40 11 -68 15 -49 8 -142 32 -255 66
-213 63 -136 -2 135 -117 50 -20 119 -52 155 -71 36 -18 100 -49 142 -68 42
-19 75 -38 72 -42 -3 -4 -37 -5 -77 -2 -129 10 -450 -21 -502 -48 -35 -19 -23
-27 47 -34 74 -8 201 -35 212 -45 17 -15 -2 -22 -86 -30 -149 -14 -412 -49
-473 -62 l-60 -13 27 -18 c15 -10 87 -34 160 -53 73 -19 135 -37 138 -40 9 -8
-24 -21 -69 -27 -118 -16 -265 -39 -357 -57 -110 -21 -164 -24 -164 -10 0 9
66 43 124 63 50 17 59 38 17 38 -37 0 -50 23 -28 48 8 9 19 30 23 46 15 63 51
105 104 121 39 12 120 56 120 65 0 10 -67 1 -92 -11 -9 -5 -33 -9 -54 -9 -31
0 -35 2 -24 15 14 17 63 27 140 30 114 4 120 5 120 20 0 16 56 43 107 52 18 3
30 10 27 15 -4 5 -60 8 -134 6 -71 -2 -132 0 -136 5 -15 15 12 27 85 37 40 6
80 14 87 18 31 17 -107 108 -303 201 -18 8 -33 22 -33 29 0 23 56 9 153 -37
47 -23 93 -41 101 -41 8 0 17 -4 21 -9 3 -5 19 -13 36 -16 17 -4 61 -19 98
-34 36 -15 72 -26 79 -24 16 6 16 33 -1 33 -7 0 -33 12 -58 28 -24 15 -69 38
-99 51 -30 13 -74 32 -98 43 -62 27 -50 44 27 40 34 -2 67 0 74 6 14 10 81 21
176 28 36 2 67 7 70 9 9 10 29 5 41 -10z m-1280 -200 c7 -8 9 -15 4 -15 -4 0
-3 -5 4 -12 9 -9 15 -8 26 8 15 19 15 19 38 -3 12 -13 17 -23 10 -23 -6 0 -12
5 -12 12 0 14 -14 1 -16 -15 0 -7 -2 -21 -3 -32 -1 -17 -4 -16 -20 9 -28 42
-48 51 -61 27 -5 -11 -10 -29 -10 -41 0 -17 3 -19 19 -10 25 13 34 0 25 -35
-7 -28 -8 -29 -35 -15 -25 14 -25 -2 1 -18 18 -11 23 -9 43 13 26 29 58 26 72
-8 13 -28 41 -30 37 -2 -2 10 -11 25 -20 32 -10 7 -13 13 -8 13 5 0 3 7 -4 15
-10 12 -10 15 0 15 10 0 10 3 0 15 -8 10 -9 15 -2 15 6 0 24 -16 39 -36 15
-20 55 -67 87 -103 33 -36 79 -93 103 -126 23 -33 47 -65 52 -71 6 -7 7 -14 5
-17 -7 -6 -77 22 -84 33 -8 12 -223 130 -238 130 -12 0 -22 7 -56 37 -7 6 -32
17 -55 24 -49 15 -60 32 -37 58 9 10 16 23 16 29 0 7 5 12 10 12 6 0 10 13 10
29 0 16 6 31 15 35 8 3 15 12 15 21 0 19 14 19 30 0z m-1618 -131 c17 -9 52
-22 78 -30 27 -8 61 -21 77 -29 15 -8 35 -15 43 -15 8 0 24 -7 34 -15 15 -12
17 -17 7 -29 -7 -8 -10 -20 -7 -25 4 -6 -6 -18 -21 -28 -39 -26 -164 -23 -218
5 -69 35 -79 80 -23 98 20 6 20 6 -1 25 -22 21 -29 59 -11 59 6 0 25 -7 42
-16z m1508 -79 c0 -7 9 -17 21 -20 16 -5 18 -9 8 -21 -7 -9 -14 -29 -16 -47
-2 -17 -7 -33 -11 -36 -4 -4 -32 -55 -62 -116 -55 -112 -150 -267 -150 -246 0
6 11 33 24 59 13 26 29 65 35 87 7 22 16 49 21 60 38 88 50 120 56 150 4 21
12 35 21 35 7 0 13 6 11 13 -4 20 24 107 33 101 5 -3 9 -11 9 -19z m180 -179
c0 -14 -4 -27 -9 -30 -20 -13 6 -61 45 -84 32 -19 49 -22 95 -19 31 3 71 12
89 22 27 14 37 15 57 4 13 -7 22 -17 20 -22 -1 -5 -42 -27 -90 -49 -71 -32
-107 -42 -188 -50 -117 -12 -141 -6 -166 47 -13 28 -14 39 -5 60 6 14 16 25
22 25 7 0 7 -7 0 -21 -17 -31 -3 -36 26 -8 25 24 64 92 64 114 0 13 20 35 32
35 4 0 8 -11 8 -24z m443 -346 c19 -7 27 -16 27 -33 0 -13 4 -27 9 -32 4 -6
13 -28 18 -50 6 -22 20 -63 31 -92 13 -32 18 -55 12 -58 -6 -4 -45 29 -88 73
-44 46 -99 90 -128 105 -27 14 -56 33 -64 41 -12 15 -14 15 -31 0 -14 -12 -16
-21 -9 -29 10 -12 32 -117 50 -240 5 -33 12 -78 15 -100 l6 -40 -26 30 c-14
17 -44 60 -65 96 -21 36 -46 71 -54 79 -9 7 -16 19 -16 26 0 8 -16 32 -36 53
-51 57 -64 47 -65 -53 -1 -44 -4 -108 -8 -141 l-6 -60 -41 55 c-23 30 -61 92
-84 138 -27 49 -50 82 -59 82 -9 0 -41 -15 -73 -34 -31 -19 -59 -32 -61 -29
-8 8 126 164 137 160 6 -2 18 -17 26 -32 8 -16 21 -35 28 -43 14 -16 19 -7 24
43 2 22 8 30 23 30 16 0 21 -8 23 -37 4 -42 22 -53 22 -13 0 14 9 33 19 42 12
10 19 26 17 42 -2 14 -1 18 1 9 2 -9 16 -27 30 -40 14 -13 32 -31 41 -41 10
-10 25 -23 36 -29 17 -9 18 -7 12 29 -6 35 -5 39 21 51 15 7 40 19 56 28 15 8
50 19 78 23 28 5 55 13 61 19 8 8 18 7 37 -3 14 -8 38 -19 54 -25z"/>
<path d="M1500 3824 c7 -11 96 -86 198 -168 139 -111 193 -149 215 -150 49 -2
41 19 -24 59 -34 21 -82 56 -108 79 -25 22 -79 65 -119 95 -40 30 -71 56 -69
57 5 5 186 -31 262 -51 33 -9 141 -38 240 -66 99 -27 196 -54 215 -59 19 -4
53 -13 74 -19 87 -23 28 14 -69 43 -206 63 -297 89 -415 121 -74 20 -153 41
-175 47 -22 6 -71 12 -110 14 -38 2 -83 6 -98 10 -26 6 -28 5 -17 -12z"/>
</g>
</svg>
